HIERARCHY
ROOT Hips
{
	OFFSET	0.00	0.00	0.00
	CHANNELS 6 Xposition Yposition Zposition Zrotation Xrotation Yrotation
	JOINT LeftUpperLeg
	{
		OFFSET	 0.100000	-0.066564	-0.000554
		CHANNELS 3 Zrotation Xrotation Yrotation
		JOINT LeftLowerLeg
		{
			OFFSET	 0.002447	-0.463436	-0.005172
			CHANNELS 3 Zrotation Xrotation Yrotation
			JOINT LeftFoot
			{
				OFFSET	-0.002447	-0.420480	-0.020576
				CHANNELS 3 Zrotation Xrotation Yrotation
				JOINT LeftToes
				{
					OFFSET	 0.003734	-0.104922	 0.126407
					CHANNELS 3 Zrotation Xrotation Yrotation
					End Site
					{
						OFFSET	 0.000000	 0.000000	 0.059955
					}
				}
			}
		}
	}
	JOINT RightUpperLeg
	{
		OFFSET	-0.100000	-0.066564	-0.000554
		CHANNELS 3 Zrotation Xrotation Yrotation
		JOINT RightLowerLeg
		{
			OFFSET	-0.002447	-0.463436	-0.005146
			CHANNELS 3 Zrotation Xrotation Yrotation
			JOINT RightFoot
			{
				OFFSET	 0.002447	-0.420479	-0.020602
				CHANNELS 3 Zrotation Xrotation Yrotation
				JOINT RightToes
				{
					OFFSET	-0.003734	-0.104922	 0.126407
					CHANNELS 3 Zrotation Xrotation Yrotation
					End Site
					{
						OFFSET	-0.000000	 0.000000	 0.059955
					}
				}
			}
		}
	}
	JOINT Spine
	{
		OFFSET	 0.000000	 0.099235	-0.012273
		CHANNELS 3 Zrotation Xrotation Yrotation
		JOINT Chest
		{
			OFFSET	-0.000001	 0.116455	-0.014223
			CHANNELS 3 Zrotation Xrotation Yrotation
			JOINT UpperChest
			{
				OFFSET	 0.000001	 0.133602	-0.016265
				CHANNELS 3 Zrotation Xrotation Yrotation
				JOINT LeftShoulder
				{
					OFFSET	 0.061058	 0.091105	 0.007056
					CHANNELS 3 Zrotation Xrotation Yrotation
					JOINT LeftUpperArm
					{
						OFFSET	 0.133942	-0.002659	-0.026009
						CHANNELS 3 Zrotation Xrotation Yrotation
						JOINT LeftLowerArm
						{
							OFFSET	 0.274047	 0.000000	 0.000000
							CHANNELS 3 Zrotation Xrotation Yrotation
							JOINT LeftHand
							{
								OFFSET	 0.276145	 0.000000	 0.000000
								CHANNELS 3 Zrotation Xrotation Yrotation
								End Site
								{
									OFFSET	 0.165687	 0.000000	 0.000000
								}
							}
						}
					}
				}
				JOINT Neck
				{
					OFFSET	 0.000000	 0.150325	 0.007929
					CHANNELS 3 Zrotation Xrotation Yrotation
					JOINT Head
					{
						OFFSET	 0.000000	 0.103218	 0.031424
						CHANNELS 3 Zrotation Xrotation Yrotation
						End Site
						{
							OFFSET	 0.000000	 0.061931	 0.018855
						}
					}
				}
				JOINT RightShoulder
				{
					OFFSET	-0.061057	 0.091105	 0.007056
					CHANNELS 3 Zrotation Xrotation Yrotation
					JOINT RightUpperArm
					{
						OFFSET	-0.133943	-0.002660	-0.026009
						CHANNELS 3 Zrotation Xrotation Yrotation
						JOINT RightLowerArm
						{
							OFFSET	-0.274047	 0.000000	 0.000000
							CHANNELS 3 Zrotation Xrotation Yrotation
							JOINT RightHand
							{
								OFFSET	-0.276145	 0.000000	 0.000000
								CHANNELS 3 Zrotation Xrotation Yrotation
								End Site
								{
									OFFSET	-0.165687	 0.000000	 0.000000
								}
							}
						}
					}
				}
			}
		}
	}
}
MOTION
Frames:    11
Frame Time: 0.03333334
-0.063810	 1.044240	-0.503460	-3.291418	 5.274829	 1.386505	 0.502950	-10.382360	 6.755567	 0.638090	 21.791650	-0.132227	 3.132074	-16.118410	 14.561810	-0.000627	-0.290897	 0.049809	-5.608544	-8.244714	-27.285070	 0.517867	 17.185110	-0.066719	 1.239540	-9.451453	-3.796047	-0.000204	 0.324594	-0.000340	 0.270125	-0.393001	-2.879836	-0.000000	 0.000000	 0.000000	 0.521553	-0.800138	-5.766449	 0.686512	 2.155188	 12.780340	-75.900710	-6.989625	 0.770414	 1.575298	 8.017394	-20.727980	 33.653360	 28.979310	-32.695980	 0.968646	 3.529901	 4.687577	 1.389326	 3.934113	 4.504810	-1.795883	 0.802357	-7.671334	 75.935230	-16.956620	-14.229060	-5.920720	-5.357173	 14.160410	-23.944900	 3.528511	 7.868523
-0.065220	 1.045460	-0.500760	-3.008698	 5.093129	 3.748895	 0.121593	-9.596171	 5.715534	 0.661138	 20.493660	-0.128637	 2.667514	-15.461430	 13.070600	-0.000190	-0.530325	 0.038561	-5.891729	-7.293025	-29.073100	 0.568002	 16.768850	-0.072466	 1.225535	-9.626549	-4.560361	 0.000104	 0.324008	 0.000252	 0.352052	-0.534789	-2.845682	-0.000000	 0.000000	 0.000000	 0.678294	-1.087963	-5.697917	 0.925890	 3.145228	 12.280980	-75.535030	-8.410020	 1.824916	 3.036429	 7.063587	-23.361680	 30.565690	 30.088150	-31.862120	 1.276674	 4.028843	 3.800697	 1.101973	 4.055114	 3.775201	-1.033164	 1.533235	-8.214355	 74.622030	-18.176840	-15.830040	-7.146995	-5.822093	 12.692420	-22.502300	 5.096375	 7.212067
-0.065220	 1.045460	-0.500760	-3.008698	 5.093129	 3.748895	 0.121593	-9.596171	 5.715534	 0.661138	 20.493660	-0.128637	 2.667514	-15.461430	 13.070600	-0.000190	-0.530325	 0.038561	-5.891729	-7.293025	-29.073100	 0.568002	 16.768850	-0.072466	 1.225535	-9.626549	-4.560361	 0.000104	 0.324008	 0.000252	 0.352052	-0.534789	-2.845682	-0.000000	 0.000000	 0.000000	 0.678294	-1.087963	-5.697917	 0.925890	 3.145228	 12.280980	-75.535030	-8.410020	 1.824916	 3.036429	 7.063587	-23.361680	 30.565690	 30.088150	-31.862120	 1.276674	 4.028843	 3.800697	 1.101973	 4.055114	 3.775201	-1.033164	 1.533235	-8.214355	 74.622030	-18.176840	-15.830040	-7.146995	-5.822093	 12.692420	-22.502300	 5.096375	 7.212067
-0.065930	 1.045660	-0.499750	-2.848001	 4.955822	 4.686287	-0.035050	-9.306865	 5.348877	 0.657383	 20.170980	-0.126619	 2.392392	-15.332880	 12.487850	-0.000568	-0.526285	 0.023834	-6.002881	-6.878731	-29.386490	 0.594802	 16.639000	-0.075771	 1.388726	-9.743608	-5.204568	 0.000641	 0.327548	-0.000061	 0.372180	-0.567394	-2.776192	-0.000000	 0.000000	 0.000000	 0.718169	-1.155706	-5.557790	 0.674739	 3.197141	 12.471590	-75.216750	-10.058660	 2.085463	 3.627162	 7.224969	-23.866230	 29.026510	 31.270990	-31.711680	 1.116099	 4.014534	 3.533530	 1.080061	 4.075673	 3.392784	-1.226393	 1.636878	-8.258084	 73.882980	-18.968330	-16.339230	-7.492983	-5.991733	 12.236220	-22.373870	 5.576007	 7.167840
-0.066720	 1.045820	-0.498640	-2.501222	 4.764994	 5.681607	-0.336772	-8.826030	 5.388410	 0.715492	 19.612240	-0.132822	 2.050534	-15.118630	 11.495150	-0.000568	-0.514084	 0.011524	-6.332451	-6.490814	-29.819900	 0.607683	 16.775540	-0.078995	 1.373646	-10.074800	-5.832634	-0.000899	 0.326342	 0.000076	 0.390296	-0.574318	-2.597942	-0.000000	 0.000000	 0.000000	 0.755996	-1.168106	-5.203651	 0.309267	 2.648156	 13.291930	-73.970900	-11.371270	 3.030542	 3.867635	 6.175130	-23.964010	 28.154560	 31.408040	-31.975690	 1.064985	 4.021934	 3.274008	 1.052159	 4.025578	 2.919762	-1.475073	 2.019180	-8.237933	 72.909280	-19.735830	-16.486140	-7.697377	-6.982876	 11.819860	-22.585870	 5.356598	 7.216439
-0.067370	 1.045980	-0.498180	-2.212823	 4.660505	 6.163261	-0.583841	-8.507190	 5.330451	 0.711985	 19.209300	-0.130757	 1.864257	-14.904600	 11.088540	-0.000431	-0.553820	 0.002871	-6.585960	-6.317423	-29.904330	 0.633396	 16.902750	-0.082421	 1.259274	-10.274770	-6.325633	-0.000929	 0.325571	-0.000013	 0.428620	-0.571899	-2.451790	-0.000000	 0.000000	 0.000000	 0.834906	-1.164880	-4.907907	 0.183676	 2.377736	 13.575840	-72.920200	-12.754270	 3.565333	 4.185471	 5.491318	-23.882890	 28.869800	 30.757330	-32.493230	 1.005525	 4.021379	 2.996138	 0.947266	 4.005499	 2.701718	-1.820645	 2.005898	-8.157075	 71.931550	-20.439830	-16.552880	-7.777206	-7.556751	 11.806740	-22.893480	 5.217428	 7.338479
-0.068940	 1.046330	-0.497710	-2.058316	 4.479258	 6.739004	-0.686310	-8.140423	 4.855891	 0.699361	 18.809720	-0.125736	 1.742636	-14.688870	 10.997610	 0.000233	-0.519331	 0.002030	-6.560714	-5.983962	-29.932760	 0.651382	 16.791190	-0.085127	 1.082318	-10.345840	-6.967523	-0.000138	 0.325013	-0.000422	 0.555294	-0.568061	-2.275157	-0.000000	 0.000000	 0.000000	 1.087345	-1.161749	-4.552952	 0.289787	 1.983410	 14.025880	-71.325970	-14.989350	 4.120211	 5.075624	 5.055827	-23.680190	 30.366710	 29.947080	-33.296250	 1.018518	 4.049716	 2.837488	 0.791895	 4.020967	 2.487738	-2.129730	 1.840081	-7.774735	 70.052860	-21.676260	-16.458730	-7.697546	-7.662635	 12.268090	-23.343460	 5.073211	 7.807574
-0.071140	 1.046830	-0.497590	-2.027379	 4.215870	 7.246113	-0.589255	-7.744186	 4.553416	 0.704852	 18.443650	-0.125116	 1.514080	-14.459640	 10.793430	 0.000067	-0.577973	 0.000019	-6.369559	-5.525375	-30.106190	 0.691797	 16.525330	-0.089296	 1.000865	-10.360830	-7.283101	-0.000402	 0.325806	-0.000790	 0.709587	-0.517291	-2.170773	-0.000000	 0.000000	 0.000000	 1.401742	-1.062396	-4.344704	 0.710378	 1.778547	 14.172890	-69.652660	-17.635540	 4.178945	 5.590009	 4.402329	-22.929660	 31.437020	 29.423950	-34.073710	 0.875596	 4.108294	 2.625672	 0.584412	 3.983470	 2.426251	-2.549420	 1.439868	-7.658149	 67.925920	-22.479190	-16.091650	-7.559104	-7.776436	 13.118710	-23.476260	 4.767989	 8.406675
-0.073000	 1.047200	-0.498000	-1.950068	 4.115832	 7.658407	-0.543934	-7.560901	 4.466369	 0.707019	 18.151100	-0.123194	 1.315773	-14.278530	 10.427910	 0.000087	-0.522668	 0.000765	-6.375453	-5.302176	-31.006140	 0.659956	 16.427340	-0.084537	 1.171117	-10.315180	-6.870011	 0.000206	 0.328501	 0.000439	 0.776832	-0.502531	-2.115617	-0.000000	 0.000000	 0.000000	 1.538504	-1.034969	-4.228806	 0.983501	 1.560750	 14.092930	-68.346820	-19.929480	 3.653826	 6.067822	 4.212466	-22.028740	 31.717330	 29.350380	-34.661090	 0.575617	 3.993419	 2.501919	 0.448814	 3.956922	 2.387612	-3.019263	 0.884982	-7.605891	 66.015200	-23.192420	-15.286840	-7.268782	-7.774723	 13.538860	-23.590190	 4.634688	 8.786060
-0.075610	 1.047660	-0.498520	-1.911019	 4.102427	 8.056743	-0.415719	-7.422958	 4.519387	 0.722763	 17.745280	-0.123580	 1.077317	-14.077620	 9.945885	-0.000601	-0.416036	 0.000867	-6.301502	-5.164303	-31.987810	 0.624314	 16.283090	-0.078295	 1.341516	-10.213530	-6.377216	-0.000430	 0.332664	-0.001176	 0.891511	-0.608063	-2.014039	-0.000000	 0.000000	 0.000000	 1.765509	-1.247869	-4.027142	 1.784311	 1.308470	 14.490620	-66.591900	-22.867280	 2.302012	 6.693490	 4.746140	-20.649190	 33.663850	 29.389070	-36.564060	 0.668140	 3.888291	 2.495314	 0.439509	 4.083284	 2.294830	-3.147421	 0.518316	-7.677747	 63.671300	-24.302620	-13.446480	-7.119422	-7.692283	 14.967920	-23.690010	 5.315691	 8.651617
-0.077870	 1.047980	-0.498910	-1.907269	 4.107769	 8.348717	-0.279150	-7.381062	 4.456862	 0.713142	 17.516070	-0.121393	 0.833061	-13.925170	 9.682442	-0.000661	-0.420168	-0.000083	-6.153444	-5.091009	-32.082140	 0.684998	 16.139250	-0.085277	 1.166532	-10.274720	-6.569724	-0.000371	 0.332610	 0.000370	 0.943572	-0.715835	-1.964231	-0.000000	 0.000000	 0.000000	 1.864215	-1.465433	-3.923792	 2.571241	 0.991601	 14.537030	-64.966490	-24.921760	 1.388973	 6.903483	 5.561839	-19.496610	 34.799260	 29.129340	-37.976280	 0.684652	 4.011025	 2.261958	 0.579431	 4.219854	 2.158188	-3.234911	 0.574528	-8.058597	 61.936660	-25.253170	-11.283140	-7.107368	-6.874764	 15.311970	-23.700980	 5.600825	 8.765734
